<?xml version="1.0" encoding="utf-8"?>
<!-- Generator: Adobe Illustrator 17.1.0, SVG Export Plug-In . SVG Version: 6.00 Build 0)  -->
<!DOCTYPE svg PUBLIC "-//W3C//DTD SVG 1.1//EN" "http://www.w3.org/Graphics/SVG/1.1/DTD/svg11.dtd">
<svg version="1.1" id="Layer_1" xmlns="http://www.w3.org/2000/svg" xmlns:xlink="http://www.w3.org/1999/xlink" x="0px" y="0px"
	 viewBox="0 0 419.816 481.544" enable-background="new 0 0 419.816 481.544" xml:space="preserve">
<g>
	<path opacity="0.25" fill="#231F20" d="M274.656,472.283c0,0,63.66-10.5,104.958-30.746c54.07-26.504,42.939-65.202,27.565-80.574
		c-15.372-15.375-32.866-31.807-93.295-22.265c-60.432,9.541-166.451,60.431-166.451,60.431L274.656,472.283z"/>
	<path fill="#B8252E" d="M145.531,52.436c0,0,27.41-44.902,44.256-49.345c28.229-7.445,95.782,68.406,101.444,120.659
		c-1.682,5.115-12.523,12.524-12.523,12.524l-13.249-19.237l-11.661-27.135L225.285,76.35L145.531,52.436z"/>
	<path fill="#050001" d="M139.96,52.988c0,0,19.98-62.484,59.787-51.747c39.809,10.742,96.986,94.322,92.04,124.174
		C271.879,65,234.442,24.591,193.722,6.931c-20.463-8.872-43.765,46.243-43.765,46.243L139.96,52.988z"/>
	<path fill="#050001" d="M250.891,76.163c0,0,12.788,46.257,29.73,55.693l-0.212,5.734c0,0-21.91-14.886-29.578-53.133
		L250.891,76.163z"/>
	<path fill="#9E3728" d="M209.91,71.132c0,0,17.866-10.053,1.949-36.649c23.598,20.211,30.884,27.437,30.884,27.437
		s12.798,3.931,10.142-10.634c20.419,20.42,37.39,66.17,37.39,66.17l-14.443,13.973l-25.254-44.084l-7.483-2.984L209.91,71.132z"/>
	<path fill="#050001" d="M238.775,400.637c0,0,53.374,19.696,47.012,79.598c-53.009,4.241-54.782-2.202-98.779-13.865
		c-5.071-22.072-5.276-53.128-5.276-53.128L238.775,400.637z"/>
	<path fill="#050001" d="M139.296,410.058c0,0-56.534,1.794-29.884,62.078c0,0,46.318-5.264,77.595-10.496
		c0-21.683-5.276-42.934-5.276-42.934L139.296,410.058z"/>
	<path fill="#9E3728" d="M86.686,176.445c0,0-95.814,47.142-82.562,124.537c0,14.602,7.423,32.336,45.589,32.336
		c-14.272-5.673-58.544-63.783-6.743-76.418c11.547-34.484,36.877-74.472,56.002-87.023
		C91.525,173.907,86.686,176.445,86.686,176.445z"/>
	<path fill="#050001" d="M108.552,162.095c0,0-82.263,38.474-99.226,87.771c-16.964,49.3-14.621,86.249,39.653,86.249v-4.919
		c0,0-59.697,5.301-34.252-80.574c9.013-41.349,84.244-80.746,84.244-80.746L108.552,162.095z"/>
	<path fill="#050001" d="M134.02,423.432c90.197,15.797,141.599-28.284,170.145-54.599c40.735-37.556,56.065-103.568,38.062-134.15
		c-38.151-64.801-96.412-107.388-96.412-107.388l-130.877,20.141c0,0-107.538,95.427-71.97,158.849
		C66.913,348.988,78.088,413.636,134.02,423.432z"/>
	<path fill="#9E3728" d="M43.339,270.231c8.587-81.18,81.04-111.77,81.04-111.77l114.56-31.195c0,0,63.098,36.04,97.352,107.367
		c29.157,60.716-13.447,101.245-29.923,122.891c-16.478,21.645-78.545,83.402-177.081,58.55
		c-24.607-6.207-60.871-62.921-76.44-97.621C52.846,318.452,38.358,295.228,43.339,270.231z"/>
	<path fill="#050001" d="M43.759,271.722c0,0,5.468-58.207,53.939-97.815l-22.77,15.079c0,0-32.748,34.487-38.946,83.137
		L43.759,271.722z"/>
	<path fill="#050001" d="M146.362,372.301c0,0-11.153-2.863-16.712-7.234c19.182,5.33,31.83,4.239,41.363,1.984
		c-13.159,5.049-17.428,5.026-17.428,5.026c-2.225,13.374,26.066,40.875,33.693,53.075c-2.591-0.421-5.548-0.083-5.548-0.083
		S143.312,391.962,146.362,372.301z"/>
	<path fill="#050001" d="M335.097,250.686c0,0-167.178,97.205-264.33,56.448c-26.349-11.053-32.039-27.603-32.039-27.603
		l-3.181,36.443c0,0,15.816,18.869,47.042,28.321c38.854,11.768,114.655,30.381,260.229-37.302
		C354.329,270.691,341.206,256.853,335.097,250.686z"/>
	<path fill="#050001" d="M211.708,189.549c0,0-16.171,10.813-16.292,36.137c4.162,4.202,7.839,0.563,7.839,0.563
		S201.614,208.738,211.708,189.549z"/>
	<path fill="#E3BD9C" d="M128.855,134.937c0,0-6.023-31.362,13.218-70.708c24.574,10.268,91.296,27.155,91.296,27.155l-2.176,11.339
		c0,0,16.758-1.911,14.524,8.983c-2.231,10.897-5.544,34.259-29.787,24.128c-16.579,6.81-26.735,17.431-77.912,17.431
		C128.747,153.265,128.855,134.937,128.855,134.937z"/>
	<path fill="#050001" d="M227.584,94.458c0.385-0.157,4.775,2.191,4.775,2.191l-1.04,9.551c0,0,13.824-7.878,17.406,5.402
		c3.577,13.281-12.246,31.747-26.762,27.436c0.757-3.926,6.763-3.86,6.763-3.86s9.26-2.432,13.725-13.13
		c4.465-10.693-2.487-17.592-16.195-11.963C226.305,106.908,227.584,94.458,227.584,94.458z"/>
	<path fill="#050001" d="M227.459,124.683c0,0,1.738-8.943,6.741-10.776c1.178,1.209,1.62,3.393,1.62,3.393s-3.122,1.736-3.805,3.37
		c3.487-0.302,4.026,1.283,4.026,1.283S230.574,121.989,227.459,124.683z"/>
	<path fill="#050001" d="M129.603,150.931c0,0-4.704-18.221-2.676-52.646c0.88-14.981,11.321-33.494,11.321-33.494l4.531-0.348
		c0,0-17.202,55.922-9.355,85.795L129.603,150.931z"/>
	<path fill="#E3BD9C" d="M168.447,110.328c0,0-26.188-8.83-28.929,12.504c-2.739,21.323,22.321,16.484,33.03,16.559
		C172.642,124.493,168.447,110.328,168.447,110.328z"/>
	<path fill="#050001" d="M165.307,109.631c0,0-24.795-13.041-28.482,13.957c-3.002,21.961,32.498,15.861,32.498,15.861
		s-27.939,2.551-27.939-14.723C141.383,104.84,165.307,109.631,165.307,109.631z"/>
	<path fill="#9E3728" d="M293.555,174.553c0,0,73.153,68.382,53.273,105.754c-19.878,37.372-72.677,49.975-72.677,49.975
		s12.432-18.804,8.271-36.457c-4.16-17.656-15.716-29.212-15.716-29.212l17.57-3.838c0,0-20.938-18.635-26.503-37.718
		C260.691,129.231,293.555,174.553,293.555,174.553z"/>
	<path fill="#050001" d="M253.117,133.003c0,0,130.023,103.834,93.711,154.461c-36.227,42.902-72.677,42.817-72.677,42.817
		s71.882-23.736,71.882-65.877C346.033,222.262,253.117,133.003,253.117,133.003z"/>
	<path fill="#050001" d="M261.722,264.075c0,0,32.627-13.188,54.892-10.009c-20.673,0-50.661,15.139-50.661,15.139L261.722,264.075z
		"/>
	<path fill="#050001" d="M260.789,222.124c0,0,4.952,34.913,16.853,40.1c3.328-1.307,4.781-2.062,4.781-2.062
		S261.573,233.899,260.789,222.124z"/>
	<path fill="#050001" d="M157.198,122.49c9.771-0.559,14.928,7.878,14.928,7.878c5.812-8.951,21.761-13.691,28.16-13.691
		c13.805,0,19.848,16.027,19.848,16.027s33.164-3.552,39.391,31.567c6.235,35.109-14.396,41.461-14.396,41.461
		s17.907,19.171,1.178,46.636c-16.73,27.482-40.191,5.13-40.191,5.13s-3.249,29.312-28.669,20.839
		c-25.415-8.449-26.644-27.515-26.644-27.515s-14.433,29.674-42.029,5.541c-19.922-17.415-4.448-59.159-4.448-59.159
		s-16.025,8.491-16.025-18.506c0-55.339,45.178-31.137,45.178-31.137S140.198,123.459,157.198,122.49z"/>
	<path fill="#FFFFFF" d="M173.94,138.586c0,0,4.044-20.451,26.515-16.58c10.704,1.846,16.64,14.743,16.64,14.743
		s31.235,1.653,36.829,26.305c5.601,24.677-20.997,34.992-20.997,34.992s21.406,23.206,7.657,44.127
		c-13.746,20.934-34.929-2.027-34.929-2.027s-3.952,26.989-25.494,23.147c-21.551-3.889-29.189-30.821-29.189-30.821
		s-19.105,28.264-38.359,10.806c-19.263-17.45-2.35-57.002-2.35-57.002s-18.737,10.77-18.737-12.368
		c0-29.435,31.136-25.833,41.672-21.334c0,0,5.572-14.473,19.077-21.496C165.781,124.062,169.781,132.443,173.94,138.586z"/>
	<path fill="#050001" d="M239,273.373c0,0-27.2-6.401-50.78-4.596c-23.583,1.813-30.018,27.426-12.559,49.278
		c17.465,21.857,38.827,15.153,52.88,9.77C242.597,322.434,256.823,286.488,239,273.373z"/>
	<path fill="#B8252E" d="M235.753,278.557c0,0-34.83-7.787-45.904-4.919c-11.072,2.863-25.352,16.32-9.387,35.458
		c15.968,19.14,46.997,14.634,51.547,10.84C236.559,316.139,250.731,296.524,235.753,278.557z"/>
	<g>
		<path fill="#050001" d="M98.262,253.251c0,0,17.68-27.69,37.221-19.372c19.538,8.32,14.352,11.873,20.721,19.464
			c6.369,7.592,32.516-14.621,63.834-3.836c31.315,10.79,49.256,103.954-24.019,103.954c-42.569,0-34.95-31.17-52.398-35.329
			C126.175,313.974,71.044,321.459,98.262,253.251z"/>
		<path fill="#7E421C" d="M104.576,258.268c0,0,12.383-26.011,30.159-18.685c17.778,7.328,13.352,10.602,19.145,17.288
			c5.796,6.687,33.002-11.402,61.493-1.9c28.494,9.503,45.414,93.941-21.253,93.941c-38.731,0-32.399-29.829-48.273-33.494
			C129.974,311.756,79.813,318.349,104.576,258.268z"/>
		<path fill="#050001" d="M181.239,287.847c0,11.03-8.941,19.973-19.975,19.973c-11.027,0-19.972-8.942-19.972-19.973
			c0-11.032,8.944-19.975,19.972-19.975C172.298,267.873,181.239,276.815,181.239,287.847z"/>
		<polygon fill="#050001" points="124.587,255.367 80.061,235.381 67.338,261.623 113.224,281.446 		"/>
		<polygon fill="#7E421C" points="121.872,256.183 82.231,240.207 70.988,260.114 111.191,276.81 		"/>
		<polygon fill="#050001" points="82.511,240.207 79.106,226.632 44.55,211.696 33.712,212.44 18.517,240.583 23.647,249.04 
			60.64,264.087 72.895,258.393 		"/>
		<polygon fill="#7E421C" points="78.027,239.693 75.116,228.092 44.404,214.816 35.875,216.778 23.573,239.566 26.955,246.933 
			59.333,260.103 69.808,255.238 		"/>
	</g>
	<path fill="#050001" d="M278.263,333.841c-8.199,9.456-35.217,9.066-43.846,1.583c-8.633-7.483,9.59-16.879,8.278-35.296
		c-1.314-18.418-10.903-29.596-10.903-29.596s-0.659-13.532,15.457-14.685c16.117-1.146,23.241,1.426,32.556,23.897
		C289.118,302.221,286.458,324.389,278.263,333.841z"/>
	<path fill="#FFFFFF" d="M275.209,330.24c0,0,15.832-33.547-13.487-66.165c-5.349-4.64-24.097,3.845-24.097,3.845
		s9.789,11.816,11.101,30.24c1.314,18.418-8.403,30.596-8.403,30.596S250.7,339.422,275.209,330.24z"/>
	<polygon fill="#050001" points="40.302,220.274 45.472,218.287 72.553,230.657 72.553,234.983 	"/>
	<polygon fill="#050001" points="28.773,239.358 63.784,253.403 58.195,255.238 28.376,242.935 	"/>
	<polygon fill="#050001" points="48.913,214.566 49.923,211.994 45.331,210.338 46.893,203.726 62.413,208.503 58.098,215.482 
		54.516,213.829 53.872,216.584 	"/>
	<polygon fill="#050001" points="67.996,222.939 69.838,220.541 65.454,218.93 69.087,212.747 84.149,217.43 77.479,223.917 
		74.169,222.322 72.664,224.898 	"/>
	<polygon fill="#050001" points="32.232,250.909 31.061,253.412 26.699,251.218 22.975,256.9 37.118,264.877 39.214,256.946 
		35.551,255.481 37.11,253.121 	"/>
	<polygon fill="#050001" points="51.436,259.003 50.963,261.988 46.779,259.915 44.79,266.804 58.547,274.513 58.669,265.212 
		55.232,263.906 56.069,261.041 	"/>
	<polygon fill="#050001" points="79.605,240.354 199.412,290.253 198.863,291.309 78.869,241.941 	"/>
	<polygon fill="#050001" points="78.097,245.144 197.906,295.041 197.357,296.099 77.361,246.729 	"/>
	<polygon fill="#050001" points="75.209,249.031 195.018,298.93 194.468,299.986 74.473,250.616 	"/>
	<polygon fill="#050001" points="74.198,253.451 194.004,303.349 193.454,304.407 73.461,255.037 	"/>
	<polygon fill="#050001" points="71.399,257.202 191.208,307.099 190.658,308.157 70.663,258.787 	"/>
	
		<rect x="191.81" y="285.337" transform="matrix(-0.9053 -0.4248 0.4248 -0.9053 244.6554 652.0014)" fill="#050001" width="6.387" height="26.786"/>
	<path fill="#050001" d="M235.908,274.06c0,0-27.9-1.541-50.8,4.364c-22.899,5.913-24.754,32.257-3.739,50.719
		c21.025,18.459,40.881,8.123,53.774,0.361C248.04,321.736,255.749,283.854,235.908,274.06z"/>
	<path fill="#B8252E" d="M233.62,279.736c0,0-35.655-1.572-46.058,3.188c-10.397,4.76-22.101,20.507-3.036,36.558
		c19.076,16.049,48.835,6.183,52.649,1.65C240.99,316.593,251.513,294.803,233.62,279.736z"/>
	<path fill="#050001" d="M70.173,312.913c0,0,27.598-4.37,48.739-14.972c21.14-10.604,17.399-36.743-7.03-50.364
		c-24.44-13.616-41.674,0.672-52.643,10.976C48.27,268.865,48.712,307.522,70.173,312.913z"/>
	<path fill="#B8252E" d="M71.213,306.884c0,0,35.187-5.977,44.352-12.821c9.163-6.846,17.286-24.703-4.735-36.375
		c-22.026-11.67-49.04,4.243-51.813,9.478C56.243,272.408,50.547,295.924,71.213,306.884z"/>
	<path fill="#050001" d="M17.906,271.81c4.007-11.858,22.196-21.727,33.017-18.07c10.825,3.663-2.487,19.257,5.701,35.809
		c8.187,16.551,21.921,21.764,21.921,21.764s5.106,13.778-9.375,20.944c-14.483,7.161-22.055,7.478-39.178-9.794
		C12.862,305.183,13.898,283.657,17.906,271.81z"/>
	<path fill="#FFFFFF" d="M23.207,270.767c0,0-10.032,40.263,29.452,59.354c6.709,2.269,23.451-11.591,23.451-11.591
		s-16.136-8.322-24.322-24.879c-8.188-16.551-3.302-32.7-3.302-32.7S38.945,256.334,23.207,270.767z"/>
	<path fill="#050001" d="M243.959,119.42c-11.729-2.389-55.727-30.086-113.274-35.471c-3.518-1.528-5.068-11.687-5.261-15.488
		c-0.359-6.984,2.35-17.453,2.35-17.453s4.032-13.412,16.383-8.058c19.091,8.275,102.874,38.617,113.983,43.429
		C269.245,91.203,260.123,122.731,243.959,119.42z"/>
	<path fill="#FFFFFF" d="M254.996,93.972c0,0-31.942-13.847-51.402-22.286c-19.467-8.442-59.702-21.904-61.34-21.256
		c-1.631,0.64-22.536,24.605-4.396,26.54c18.134,1.938,87.515,24.73,100.711,33.005C251.764,118.249,259.185,99.343,254.996,93.972z
		"/>
	<path fill="#050001" d="M133.415,102.94c4.629,10.365,16.789,15.022,27.158,10.396c10.371-4.631,15.018-16.79,10.392-27.156
		c-4.625-10.366-16.782-15.02-27.154-10.391C133.444,80.417,128.791,92.579,133.415,102.94z"/>
	<path fill="#FFFFFF" d="M136.823,101.841c3.827,8.573,13.9,12.432,22.479,8.603c8.585-3.836,12.447-13.906,8.613-22.481
		c-3.831-8.594-13.902-12.442-22.492-8.607C136.844,83.182,132.987,93.246,136.823,101.841z"/>
	<path fill="#050001" d="M148.816,101.762c1.154,2.526,4.132,3.641,6.661,2.489c2.521-1.151,3.634-4.134,2.482-6.66
		c-1.151-2.526-4.132-3.636-6.656-2.485C148.777,96.259,147.664,99.238,148.816,101.762z"/>
	<path fill="#050001" d="M205.131,32.281c0,0,55.623,20.64,45.571,51.122c-5.684-1.875-5.684-1.875-5.684-1.875
		S250.288,62.066,205.131,32.281z"/>
	<path fill="#050001" d="M271.458,140.36c-0.562,15.289,11.377,28.133,26.657,28.693c15.286,0.564,28.132-11.37,28.694-26.659
		c0.559-15.275-11.374-28.128-26.656-28.686C284.864,113.143,272.022,125.08,271.458,140.36z"/>
	<path fill="#FFFFFF" d="M278.095,140.612c-0.425,11.61,8.646,21.382,20.268,21.803c11.619,0.429,21.385-8.646,21.81-20.264
		c0.431-11.624-8.645-21.384-20.266-21.813C288.289,119.915,278.524,128.988,278.095,140.612z"/>
	<path fill="#050001" d="M164.184,110.746c6.343,13.903,22.749,20.027,36.641,13.688c13.898-6.339,20.021-22.74,13.68-36.645
		c-6.334-13.882-22.735-20.009-36.632-13.67C163.978,80.458,157.852,96.861,164.184,110.746z"/>
	<path fill="#FFFFFF" d="M168.328,109.173c5.389,11.808,19.335,17.015,31.143,11.628c11.814-5.388,17.032-19.339,11.646-31.148
		c-5.393-11.824-19.347-17.015-31.161-11.625C168.149,83.413,162.934,97.349,168.328,109.173z"/>
	<path fill="#050001" d="M184.691,105.949c1.361,2.986,4.887,4.302,7.868,2.942c2.98-1.362,4.296-4.885,2.935-7.871
		c-1.36-2.98-4.883-4.294-7.862-2.936C184.647,99.446,183.333,102.968,184.691,105.949z"/>
	<path fill="#050001" d="M197.972,160.705c-0.505-23.398-38.49-14.214-40.8-7.795C145.997,183.944,198.317,176.558,197.972,160.705z
		"/>
	<path fill="#932923" d="M193.846,164.262c0,0-7.175-4.908-14.545-2.264c-7.37,2.647-9.967,8.155-9.967,8.155
		s8.088,1.671,14.719-0.711C190.686,167.06,193.846,164.262,193.846,164.262z"/>
	<path fill="#FFFFFF" d="M191.612,153.418c0,0-5.03-7.519-23.13-4.176c-9.766,1.804-9.945,9.406-9.945,9.406
		S165.818,162.679,191.612,153.418z"/>
	
		<linearGradient id="SVGID_1_" gradientUnits="userSpaceOnUse" x1="-335.2184" y1="293.9113" x2="-335.1868" y2="289.5961" gradientTransform="matrix(-0.9412 0.338 0.338 0.9412 -230.9908 1.9612)">
		<stop  offset="0" style="stop-color:#009BDB"/>
		<stop  offset="1" style="stop-color:#18193F"/>
	</linearGradient>
	<path fill="url(#SVGID_1_)" d="M185.788,161.333c0,0-5.914,0.642-5.03,4.721C179.301,161.999,180.421,159.825,185.788,161.333z"/>
	<path fill="#050001" d="M231.302,275.409c-0.777-0.779-27.093-13.898-34.557-5.444c-7.464,8.451-6.944,9.907-6.944,9.907
		s28.014-1.973,32.268-1.973C226.323,277.899,231.302,275.409,231.302,275.409z"/>
	<path fill="#B8252E" d="M221.653,274.577c0,0-13.487-6.227-18.986-3.838c-5.498,2.387-6.33,5.084-6.33,5.084
		S217.088,273.85,221.653,274.577z"/>
	<path fill="#9E3728" d="M196.548,423.432c0,0,65.907-28.864,84.636-93.945c32.98-13.235,61.141-30.626,61.141-30.626
		s-1.756,30.378-41.348,69.973C248.351,421.459,196.548,423.432,196.548,423.432z"/>
	<path fill="#9E3728" d="M300.438,321.108c0,0,40.295-41.86,35.524-59.885c-4.771-18.023-29.155-64.142-83.224-72.093
		c5.301-5.301,7.926-24.524-2.292-34.742c-10.219-10.219-17.42-17.422-17.42-17.422s7.786-8.002,10.171-10.387
		c9.92,6.424,107.077,89.585,107.077,138.355C350.275,313.703,300.438,321.108,300.438,321.108z"/>
</g>
</svg>
