<?xml version="1.0" encoding="utf-8"?>
<!-- Generator: Adobe Illustrator 21.1.0, SVG Export Plug-In . SVG Version: 6.00 Build 0)  -->
<svg version="1.1" id="Layer_1" xmlns="http://www.w3.org/2000/svg" xmlns:xlink="http://www.w3.org/1999/xlink" x="0px" y="0px"
	 viewBox="0 0 766 431" style="enable-background:new 0 0 766 431;" xml:space="preserve">
<style type="text/css">
	.st0{fill:#58595B;}
	.st1{fill:url(#SVGID_1_);}
	.st2{display:none;}
	.st3{display:inline;}
	.st4{fill:#E6E7E8;stroke:#6D6E71;stroke-miterlimit:10;}
	.st5{fill:#A7A9AC;}
	.st6{fill:#939598;}
	.st7{fill:#808285;}
	.st8{fill:#6D6E71;}
	.st9{fill:none;stroke:#6D6E71;stroke-width:2;stroke-miterlimit:10;}
	.st10{fill:none;stroke:#BCBEC0;stroke-width:0.7;stroke-linecap:round;stroke-linejoin:round;stroke-miterlimit:10;}
	.st11{fill:#B1B3B6;}
	.st12{fill:none;stroke:#97999C;stroke-width:0.7;stroke-linecap:round;stroke-linejoin:round;stroke-miterlimit:10;}
	.st13{fill:none;stroke:#BCBEC0;stroke-linecap:round;stroke-linejoin:round;stroke-miterlimit:10;}
	.st14{fill:#BCBEC0;}
	.st15{fill:#999B9E;}
	.st16{fill:none;stroke:#6D6E71;stroke-width:0.6;stroke-miterlimit:10;}
	.st17{fill:none;stroke:#808285;stroke-miterlimit:10;}
	.st18{font-family:'BLOKK';}
	.st19{font-size:4.1596px;}
	.st20{font-size:6.2393px;}
	.st21{fill:none;stroke:#58595B;stroke-miterlimit:10;}
	.st22{fill:#CDCCCC;stroke:#58595B;stroke-miterlimit:10;}
	.st23{fill:#FFFFFF;}
	.st24{font-size:6.172px;}
	.st25{fill:none;}
	.st26{font-size:2.0798px;}
	.st27{fill:#414042;}
	.st28{fill:none;stroke:#D1D3D4;stroke-miterlimit:10;}
	.st29{opacity:0.5;fill:#849A3B;enable-background:new    ;}
	.st30{opacity:0.5;fill:#2E8BCB;enable-background:new    ;}
	.st31{opacity:0.5;fill:#D43883;enable-background:new    ;}
	.st32{fill:#CB4E27;}
	.st33{font-family:'BreeSerif-Regular';}
	.st34{font-size:42.6676px;}
	.st35{fill:#2BA199;}
	.st36{fill:#6F71B5;}
	.st37{font-size:28.8965px;}
</style>
<g id="Layer_3">
	<g>
		<g>
			<rect x="72.3" y="78.8" class="st0" width="258.2" height="188.3"/>
			<rect x="48" y="54.5" class="st0" width="306.7" height="236.9"/>
			<rect x="148.2" y="291.4" class="st0" width="103.3" height="69.9"/>
			<rect x="96.6" y="352.2" class="st0" width="212.6" height="24.3"/>
		</g>
		<rect x="72.3" y="78.8" class="st0" width="258.2" height="188.3"/>
	</g>
	
		<linearGradient id="SVGID_1_" gradientUnits="userSpaceOnUse" x1="285.0384" y1="197.4216" x2="87.4598" y2="343.0061" gradientTransform="matrix(1 0 0 -1 0 432)">
		<stop  offset="0" style="stop-color:#999999"/>
		<stop  offset="1" style="stop-color:#DEDFE0"/>
	</linearGradient>
	<rect x="72.3" y="78.8" class="st1" width="258.2" height="188.3"/>
</g>
<g id="Browser" class="st2">
	<g class="st3">
		<rect x="72.3" y="78.8" class="st4" width="258.2" height="188.3"/>
		<rect x="323.4" y="89.2" class="st0" width="7" height="177.9"/>
		<rect x="323.4" y="98.2" class="st5" width="7" height="7"/>
		<rect x="72.3" y="78.8" class="st6" width="258.2" height="8.9"/>
		<rect x="72.3" y="262.7" class="st6" width="258.2" height="4.5"/>
		<path class="st7" d="M135.8,89.6c0,0.8-0.6,1.4-1.4,1.4H95.5c-0.8,0-1.4-0.6-1.4-1.4v-6.9c0-0.8,0.6-1.4,1.4-1.4h38.9
			c0.8,0,1.4,0.6,1.4,1.4L135.8,89.6L135.8,89.6z"/>
		<path class="st8" d="M79.9,84.4c0,0.8-0.6,1.4-1.4,1.4h-1.4c-0.8,0-1.4-0.6-1.4-1.4V83c0-0.8,0.6-1.4,1.4-1.4h1.4
			c0.8,0,1.4,0.6,1.4,1.4V84.4z"/>
		<path class="st7" d="M87.3,84.4c0,0.8-0.6,1.4-1.4,1.4h-1.4c-0.8,0-1.4-0.6-1.4-1.4V83c0-0.8,0.6-1.4,1.4-1.4h1.4
			c0.8,0,1.4,0.6,1.4,1.4V84.4z"/>
		<line class="st9" x1="98.7" y1="84.8" x2="126.8" y2="84.8"/>
		<line class="st10" x1="130.6" y1="83.7" x2="132.5" y2="85.7"/>
		<line class="st10" x1="130.6" y1="85.6" x2="132.6" y2="83.7"/>
		<path class="st11" d="M179.9,89.6c0,0.8-0.6,1.4-1.4,1.4h-38.9c-0.8,0-1.4-0.6-1.4-1.4v-6.9c0-0.8,0.6-1.4,1.4-1.4h38.9
			c0.8,0,1.4,0.6,1.4,1.4V89.6z"/>
		<path class="st11" d="M182,83.3h2.8c0.8,0,1.4,0.6,1.4,1.4v7.6c0,0.8-0.6,1.4-1.4,1.4H182V83.3z"/>
		<line class="st9" x1="142.8" y1="84.8" x2="171" y2="84.8"/>
		<line class="st12" x1="174.7" y1="83.7" x2="176.7" y2="85.7"/>
		<line class="st12" x1="174.7" y1="85.6" x2="176.7" y2="83.7"/>
		<rect x="72.3" y="87.8" class="st7" width="258.2" height="10.4"/>
		<g>
			<polyline class="st13" points="77.4,91.1 75.7,93 77.4,94.8 			"/>
			<line class="st13" x1="75.7" y1="93" x2="79.5" y2="93"/>
		</g>
		<g>
			<polyline class="st13" points="84.4,94.8 86.1,92.9 84.4,91.1 			"/>
			<line class="st13" x1="86.1" y1="92.9" x2="82.3" y2="92.9"/>
		</g>
		<rect x="90.8" y="89.8" class="st14" width="237.4" height="6.4"/>
		<polygon class="st15" points="324.3,90.7 325.1,92.2 326.8,92.4 325.6,93.6 325.8,95.3 324.3,94.5 322.8,95.3 323.1,93.6 
			321.9,92.4 323.6,92.2 		"/>
		
			<ellipse transform="matrix(0.7307 -0.6827 0.6827 0.7307 -37.9324 88.9844)" class="st16" cx="93.8" cy="92.6" rx="1.6" ry="1.6"/>
		<rect x="95" y="93.4" transform="matrix(0.7303 -0.6832 0.6832 0.7303 -38.6547 90.7415)" class="st8" width="1.1" height="1.9"/>
		<g>
			<line class="st17" x1="328" y1="81.7" x2="322" y2="81.7"/>
			<line class="st17" x1="328" y1="83.3" x2="322" y2="83.3"/>
			<line class="st17" x1="328" y1="84.9" x2="322" y2="84.9"/>
		</g>
	</g>
</g>
<g id="Results">
	<g>
		<rect x="102.1" y="98.2" class="st0" width="191.5" height="15.1"/>
		<rect x="102.1" y="234.7" class="st8" width="191.5" height="27.9"/>
		<text transform="matrix(1 0 0 1 149.2188 244.1016)" class="st7 st18 st19">3D + Animation</text>
		<text transform="matrix(1 0 0 1 149.2188 248.1016)" class="st7 st18 st19">Architecture</text>
		<text transform="matrix(1 0 0 1 149.2188 252.0016)" class="st7 st18 st19">CAD</text>
		<text transform="matrix(1 0 0 1 149.2188 256.0016)" class="st7 st18 st19">Character Animat</text>
		<text transform="matrix(1 0 0 1 110.9775 257.0996)" class="st0 st18 st19">my company .co</text>
		<text transform="matrix(1 0 0 1 124.0996 107.3545)" class="st5 st18 st20">my company .co</text>
		<text transform="matrix(1 0 0 1 188.5293 244.1016)" class="st7 st18 st19">Compositing</text>
		<text transform="matrix(1 0 0 1 188.5293 248.1016)" class="st7 st18 st19">Documentaries</text>
		<text transform="matrix(1 0 0 1 188.5293 252.0016)" class="st7 st18 st19">Game Design</text>
		<text transform="matrix(1 0 0 1 188.5293 256.0016)" class="st7 st18 st19">Lighting</text>
		<text transform="matrix(1 0 0 1 229.3975 244.1016)" class="st7 st18 st19">Materials</text>
		<text transform="matrix(1 0 0 1 229.3975 248.1016)" class="st7 st18 st19">Modeling</text>
		<text transform="matrix(1 0 0 1 229.3975 252.0016)" class="st7 st18 st19">Particles</text>
		<text transform="matrix(1 0 0 1 260.3896 244.1016)" class="st7 st18 st19">Web Fonts</text>
		<text transform="matrix(1 0 0 1 260.3896 248.1016)" class="st7 st18 st19">Web Foundations</text>
		<text transform="matrix(1 0 0 1 260.3896 252.0016)" class="st7 st18 st19">Web Graphics</text>
		<text transform="matrix(1 0 0 1 260.3896 256.0016)" class="st7 st18 st19">Modeling</text>
		<circle class="st0" cx="124.4" cy="246.7" r="5.7"/>
		<circle class="st8" cx="114.9" cy="105.2" r="4"/>
		<line class="st21" x1="184.1" y1="239.9" x2="184.1" y2="258.7"/>
		<line class="st21" x1="222.1" y1="239.9" x2="222.1" y2="258.7"/>
		<line class="st21" x1="254.4" y1="239.9" x2="254.4" y2="258.7"/>
		<rect x="102.1" y="113.2" class="st5" width="191.5" height="29.2"/>
		<rect x="72.3" y="98.2" class="st14" width="29.8" height="164.5"/>
		<rect x="293.6" y="98.2" class="st14" width="29.8" height="164.5"/>
		<rect x="160.3" y="123.7" class="st22" width="76.3" height="8.3"/>
		<path class="st8" d="M261.5,131c0,0.6-0.5,1-1,1h-18c-0.6,0-1-0.5-1-1v-6.2c0-0.6,0.5-1,1-1h18c0.6,0,1,0.5,1,1V131z"/>
		<text transform="matrix(1 0 0 1 136.6523 131.6602)" class="st7 st18 st20">search</text>
		<text transform="matrix(1 0 0 1 249.0283 129.582)" class="st23 st18 st24">GO</text>
		<path class="st0" d="M124.4,161.2c0,0.6-0.5,1-1,1H112c-0.6,0-1-0.5-1-1v-11.4c0-0.6,0.5-1,1-1h11.4c0.6,0,1,0.5,1,1V161.2z"/>
		<rect x="128.7" y="149.8" class="st25" width="36.5" height="13.8"/>
		<text transform="matrix(1 0 0 1 128.6973 151.1387)" class="st8 st18 st26"> amet, consectetur adipisicing elit. </text>
		<text transform="matrix(1 0 0 1 128.6973 153.6387)" class="st8 st18 st26">Ducimus accusamus necessitatibus </text>
		<text transform="matrix(1 0 0 1 128.6973 156.1387)" class="st8 st18 st26">optio sint sunt quae non aut eveniet </text>
		<text transform="matrix(1 0 0 1 128.6973 158.6387)" class="st8 st18 st26">laborum nulla reprehendervoluptatum </text>
		<text transform="matrix(1 0 0 1 128.6973 161.1387)" class="st8 st18 st26">aliasquo?ipsum dolor sit</text>
		<path class="st27" d="M185.8,161.2c0,0.6-0.5,1-1,1h-11.4c-0.6,0-1-0.5-1-1v-11.4c0-0.6,0.5-1,1-1h11.4c0.6,0,1,0.5,1,1V161.2z"/>
		<rect x="190.1" y="149.8" class="st25" width="36.5" height="13.8"/>
		<text transform="matrix(1 0 0 1 190.1465 151.1387)" class="st8 st18 st26">ipsum dolor sit amet, consectetur </text>
		<text transform="matrix(1 0 0 1 190.1465 153.6387)" class="st8 st18 st26">adipisicing elit. Ducimus accusamus </text>
		<text transform="matrix(1 0 0 1 190.1465 156.1387)" class="st8 st18 st26">necessitatibus  hendervolu optio sint </text>
		<text transform="matrix(1 0 0 1 190.1465 158.6387)" class="st8 st18 st26">sunt quae non aut eveniet laborum </text>
		<text transform="matrix(1 0 0 1 190.1465 161.1387)" class="st8 st18 st26">nulla repreptatum aliasquo?</text>
		<path class="st14" d="M247.3,161.2c0,0.6-0.5,1-1,1h-11.4c-0.6,0-1-0.5-1-1v-11.4c0-0.6,0.5-1,1-1h11.4c0.6,0,1,0.5,1,1V161.2z"/>
		<rect x="251.6" y="149.8" class="st25" width="36.5" height="13.8"/>
		<text transform="matrix(1 0 0 1 251.5957 151.1387)" class="st8 st18 st26">ipsum doquo? lor sit amet, </text>
		<text transform="matrix(1 0 0 1 251.5957 153.6387)" class="st8 st18 st26">consectetur adipisicing elit. </text>
		<text transform="matrix(1 0 0 1 251.5957 156.1387)" class="st8 st18 st26">Ducimus accusamus necessitatibus </text>
		<text transform="matrix(1 0 0 1 251.5957 158.6387)" class="st8 st18 st26">optio sint sunt quae non aut eveniet </text>
		<text transform="matrix(1 0 0 1 251.5957 161.1387)" class="st8 st18 st26">laborum nulla reprehendervolupt</text>
		<path class="st5" d="M124.4,179.8c0,0.6-0.5,1-1,1H112c-0.6,0-1-0.5-1-1v-11.4c0-0.6,0.5-1,1-1h11.4c0.6,0,1,0.5,1,1V179.8z"/>
		<rect x="128.7" y="168.4" class="st25" width="36.5" height="13.8"/>
		<text transform="matrix(1 0 0 1 128.6973 169.7021)" class="st8 st18 st26">ipsum dolor sit amet, consectetur </text>
		<text transform="matrix(1 0 0 1 128.6973 172.2021)" class="st8 st18 st26">adipisicing elit. Ducimus accusamus </text>
		<text transform="matrix(1 0 0 1 128.6973 174.7021)" class="st8 st18 st26">necessitatibusnon aut eveniet </text>
		<text transform="matrix(1 0 0 1 128.6973 177.2021)" class="st8 st18 st26">laborum nulla reprehendervoluptatum </text>
		<text transform="matrix(1 0 0 1 128.6973 179.7021)" class="st8 st18 st26">aliasquo?  optio sint sunt quae </text>
		<path class="st0" d="M185.8,179.8c0,0.6-0.5,1-1,1h-11.4c-0.6,0-1-0.5-1-1v-11.4c0-0.6,0.5-1,1-1h11.4c0.6,0,1,0.5,1,1V179.8z"/>
		<rect x="190.1" y="168.4" class="st25" width="36.5" height="13.8"/>
		<text transform="matrix(1 0 0 1 190.1465 169.7021)" class="st8 st18 st26">ip  icing elit. Ducimus accusamus </text>
		<text transform="matrix(1 0 0 1 190.1465 172.2021)" class="st8 st18 st26">necessitatibus optio sint sunt quae </text>
		<text transform="matrix(1 0 0 1 190.1465 174.7021)" class="st8 st18 st26">non aut eveniet l sum dolor sit amet, </text>
		<text transform="matrix(1 0 0 1 190.1465 177.2021)" class="st8 st18 st26">consectetur adipisaborum nulla </text>
		<text transform="matrix(1 0 0 1 190.1465 179.7021)" class="st8 st18 st26">reprehendervoluptatum aliasquo?</text>
		<path class="st0" d="M247.3,179.8c0,0.6-0.5,1-1,1h-11.4c-0.6,0-1-0.5-1-1v-11.4c0-0.6,0.5-1,1-1h11.4c0.6,0,1,0.5,1,1V179.8z"/>
		<rect x="251.6" y="168.4" class="st25" width="36.5" height="13.8"/>
		<text transform="matrix(1 0 0 1 251.5957 169.7021)" class="st8 st18 st26">ng elit. Ducimus accusamus </text>
		<text transform="matrix(1 0 0 1 251.5957 172.2021)" class="st8 st18 st26">necessitatibus optio sint sunt quae </text>
		<text transform="matrix(1 0 0 1 251.5957 174.7021)" class="st8 st18 st26">non aut eveniet laborum nulla </text>
		<text transform="matrix(1 0 0 1 251.5957 177.2021)" class="st8 st18 st26">reprehendervoluptatum aliasquo? </text>
		<text transform="matrix(1 0 0 1 251.5957 179.7021)" class="st8 st18 st26">ipsum dolor sit amet, consectet</text>
		<path class="st7" d="M124.4,198.3c0,0.6-0.5,1-1,1H112c-0.6,0-1-0.5-1-1V187c0-0.6,0.5-1,1-1h11.4c0.6,0,1,0.5,1,1V198.3z"/>
		<rect x="128.7" y="187" class="st25" width="36.5" height="13.8"/>
		<text transform="matrix(1 0 0 1 128.6973 188.2646)" class="st8 st18 st26">ipsu  mrepr  ehender dolor sit amet, </text>
		<text transform="matrix(1 0 0 1 128.6973 190.7646)" class="st8 st18 st26">consectetur adipisicing elit. </text>
		<text transform="matrix(1 0 0 1 128.6973 193.2646)" class="st8 st18 st26">Ducimus accusamus necessitatibus </text>
		<text transform="matrix(1 0 0 1 128.6973 195.7646)" class="st8 st18 st26">optio sint sunt quae non aut eveniet </text>
		<text transform="matrix(1 0 0 1 128.6973 198.2646)" class="st8 st18 st26">laborum nulla voluptatum aliasquo?</text>
		<path class="st5" d="M185.8,198.3c0,0.6-0.5,1-1,1h-11.4c-0.6,0-1-0.5-1-1V187c0-0.6,0.5-1,1-1h11.4c0.6,0,1,0.5,1,1V198.3z"/>
		<rect x="190.1" y="187" class="st25" width="36.5" height="13.8"/>
		<text transform="matrix(1 0 0 1 190.1465 188.2646)" class="st8 st18 st26">ipsum dositatibus optio sint sunt </text>
		<text transform="matrix(1 0 0 1 190.1465 190.7646)" class="st8 st18 st26">quae non aut eveniet laborum nulla </text>
		<text transform="matrix(1 0 0 1 190.1465 193.2646)" class="st8 st18 st26">reprehendervoluptatum alilor sit </text>
		<text transform="matrix(1 0 0 1 190.1465 195.7646)" class="st8 st18 st26">amet, consectetur adipisicing elit. </text>
		<text transform="matrix(1 0 0 1 190.1465 198.2646)" class="st8 st18 st26">Ducimus accusamus necesasquo?</text>
		<path class="st5" d="M247.3,198.3c0,0.6-0.5,1-1,1h-11.4c-0.6,0-1-0.5-1-1V187c0-0.6,0.5-1,1-1h11.4c0.6,0,1,0.5,1,1V198.3z"/>
		<rect x="251.6" y="187" class="st25" width="36.5" height="13.8"/>
		<text transform="matrix(1 0 0 1 251.5957 188.2646)" class="st8 st18 st26">atibus optio sint sunt quae non aut </text>
		<text transform="matrix(1 0 0 1 251.5957 190.7646)" class="st8 st18 st26">eveniet laborum nulla ipsum dolor sit </text>
		<text transform="matrix(1 0 0 1 251.5957 193.2646)" class="st8 st18 st26">amet, consectetur adipisicing elit. </text>
		<text transform="matrix(1 0 0 1 251.5957 195.7646)" class="st8 st18 st26">Ducimus accusamus necessit </text>
		<text transform="matrix(1 0 0 1 251.5957 198.2646)" class="st8 st18 st26">reprehendervoluptatum aliasquo?</text>
		<path class="st14" d="M124.4,216.9c0,0.6-0.5,1-1,1H112c-0.6,0-1-0.5-1-1v-11.4c0-0.6,0.5-1,1-1h11.4c0.6,0,1,0.5,1,1V216.9z"/>
		<rect x="128.7" y="205.5" class="st25" width="36.5" height="13.8"/>
		<text transform="matrix(1 0 0 1 128.6973 206.8271)" class="st8 st18 st26">et, consectetur adipisicing elit. </text>
		<text transform="matrix(1 0 0 1 128.6973 209.3271)" class="st8 st18 st26">Ducimus accusamus necessitatibus </text>
		<text transform="matrix(1 0 0 1 128.6973 211.8271)" class="st8 st18 st26">optio sint sunt quae non aut eveniet </text>
		<text transform="matrix(1 0 0 1 128.6973 214.3271)" class="st8 st18 st26">laborum nulla reprehendervoluptatum </text>
		<text transform="matrix(1 0 0 1 128.6973 216.8271)" class="st8 st18 st26">alia  ipsum dolor sit am squo?</text>
		<path class="st0" d="M185.8,216.9c0,0.6-0.5,1-1,1h-11.4c-0.6,0-1-0.5-1-1v-11.4c0-0.6,0.5-1,1-1h11.4c0.6,0,1,0.5,1,1V216.9z"/>
		<rect x="190.1" y="205.5" class="st25" width="36.5" height="13.8"/>
		<text transform="matrix(1 0 0 1 190.1465 206.8271)" class="st8 st18 st26">ip icing elit. Ducimus accusamus </text>
		<text transform="matrix(1 0 0 1 190.1465 209.3271)" class="st8 st18 st26">necessitatibus optio sint sunt quae </text>
		<text transform="matrix(1 0 0 1 190.1465 211.8271)" class="st8 st18 st26">non aut eveniet laborum nulla </text>
		<text transform="matrix(1 0 0 1 190.1465 214.3271)" class="st8 st18 st26">reprehendervolu sum dolor sit amet, </text>
		<text transform="matrix(1 0 0 1 190.1465 216.8271)" class="st8 st18 st26">consectetur adipisptatum aliasquo?</text>
		<path class="st8" d="M247.3,216.9c0,0.6-0.5,1-1,1h-11.4c-0.6,0-1-0.5-1-1v-11.4c0-0.6,0.5-1,1-1h11.4c0.6,0,1,0.5,1,1V216.9z"/>
		<rect x="251.6" y="205.5" class="st25" width="36.5" height="13.8"/>
		<text transform="matrix(1 0 0 1 251.5957 206.8271)" class="st8 st18 st26">t. Ducimus accusamus necessitatibus </text>
		<text transform="matrix(1 0 0 1 251.5957 209.3271)" class="st8 st18 st26">optio sint sunt quae non aut eveniet </text>
		<text transform="matrix(1 0 0 1 251.5957 211.8271)" class="st8 st18 st26">laborum nulla reprehendervoluptatum </text>
		<text transform="matrix(1 0 0 1 251.5957 214.3271)" class="st8 st18 st26">aliasqu o?ipsum dolor sit amet, </text>
		<text transform="matrix(1 0 0 1 251.5957 216.8271)" class="st8 st18 st26">consectetur adipisicing eli</text>
		<line class="st28" x1="168.1" y1="148.8" x2="168.1" y2="223.7"/>
		<line class="st28" x1="229.2" y1="148.8" x2="229.2" y2="223.7"/>
	</g>
</g>
<g id="page_x5F_components">
	<circle class="st29" cx="639.7" cy="167.4" r="79.3"/>
	<circle class="st30" cx="569.3" cy="271.9" r="79.3"/>
	<circle class="st31" cx="501.8" cy="168" r="79.3"/>
	<text transform="matrix(1 0 0 1 446.8896 183.8045)" class="st32 st33 st34">HTML</text>
	<text transform="matrix(1 0 0 1 607.9229 183.1492)" class="st35 st33 st34">CSS</text>
	<text transform="matrix(1 0 0 1 503.2822 283.4402)" class="st36 st33 st37">JavaScript</text>
</g>
</svg>
