<svg id="lynda.com_logo_3_horizontal_" data-name="lynda.com logo 3 (horizontal)" xmlns="http://www.w3.org/2000/svg" xmlns:xlink="http://www.w3.org/1999/xlink" viewBox="0 0 29.36 29.36"><defs><style>.cls-1{fill:none;}.cls-2{clip-path:url(#clip-path);}.cls-3{fill:#fac811;}.cls-4{fill:#fff;}.cls-5{fill:#070606;}</style><clipPath id="clip-path"><circle class="cls-1" cx="14.68" cy="14.68" r="14.68"/></clipPath></defs><title>Artboard 1</title><g class="cls-2"><circle class="cls-3" cx="14.68" cy="14.68" r="14.68"/><circle class="cls-3" cx="14.68" cy="14.68" r="14.68"/><path class="cls-4" d="M20.55,7a3.06,3.06,0,0,1-.21-.41,7.35,7.35,0,0,1-4.41-4.72,11.55,11.55,0,0,0-3.68,4.43,1.58,1.58,0,0,1,.78.32,1.16,1.16,0,0,1,.22.22.4.4,0,0,1,.09-.1,1,1,0,0,1,.8-.32,1.05,1.05,0,0,1,.82.32l.08.1a1.3,1.3,0,0,1,.22-.22,1.72,1.72,0,0,1,2,0,1.14,1.14,0,0,1,.34.44h.61v.34H17.7a1,1,0,0,1-.41.79,1.73,1.73,0,0,1-2,0,1,1,0,0,1-.42-.79.78.78,0,0,1,0-.17c-.07-.32-.29-.49-.71-.49s-.66.18-.71.53h0l-.25.76a.85.85,0,0,1-.16.15,1.63,1.63,0,0,1-1,.33H12a8.06,8.06,0,0,0,.63,2.68,8.9,8.9,0,0,0,.47.94,7.46,7.46,0,0,1,.37.7,4.26,4.26,0,0,1,.16.65,5.42,5.42,0,0,0,.14.63,1.52,1.52,0,0,0,1.19.91,4.54,4.54,0,0,0,1.54.13,4.22,4.22,0,0,0,.48-.12l.47-.18a24.21,24.21,0,0,0,3.9-2.66c-.82,1-1.42,1.65-1.82,2-.17.17-.66.59-1.44,1.27l3.36,4.35L25,17.44l-.45-.6H21.43V10.64a.77.77,0,0,0,.69.2c.22-.06.32-.42.28-1.05.22-1.08.13-1.83-.3-2.24H21.6a.57.57,0,0,1,.25.45,1,1,0,0,1,0,.17A5.06,5.06,0,0,1,21.4,9h0V9h0s0,0,0,.05l-.12.24a.78.78,0,0,0-.05.57c.1.34-.07.55-.49.66a.51.51,0,0,0-.15-.48,1.2,1.2,0,0,1-.35-.38.51.51,0,0,1,.05-.53l.37-.5a1.24,1.24,0,0,0,.19-1.12l-.05-.12H19.11V7.07h1.46A.08.08,0,0,1,20.55,7Zm-5.88,5.92a4.07,4.07,0,0,0,.63-.17c.27-.11.41-.15.41-.15s-.07.13-.42.33a1.73,1.73,0,0,1-.9.27,1.83,1.83,0,0,1-.59-.16c-.24-.11-.33-.25-.29-.44a.29.29,0,0,0,.16.21,1.74,1.74,0,0,0,.41.09A1.79,1.79,0,0,0,14.67,12.94Zm.78-.52c0,.05-.06.11-.34.11h-.79a1.34,1.34,0,0,0-.41,0l-.22-.16-.29-.09c.09-.24.21-.36.34-.38l.21.13.26-.13A3.19,3.19,0,0,1,15.44,12.42ZM22,10.06a1.44,1.44,0,0,1-.28-.21c-.07-.06-.05-.25,0-.54A2.73,2.73,0,0,0,22,10.06ZM13.1,11a1.78,1.78,0,0,1-.58-.58l2,.5A3.22,3.22,0,0,1,13.1,11Z"/><path class="cls-5" d="M20.67.46a15.35,15.35,0,0,0-12,0A15.44,15.44,0,0,0,.42,8.69a15.38,15.38,0,0,0,0,12,15.48,15.48,0,0,0,3.31,4.92,15.21,15.21,0,0,0,4.92,3.31,15.35,15.35,0,0,0,12,0,15.46,15.46,0,0,0,8.23-8.23,15.36,15.36,0,0,0,0-12,15.17,15.17,0,0,0-3.31-4.92A15.45,15.45,0,0,0,20.67.46Zm-6-.59A14.85,14.85,0,0,1,25.13,4.22,14.82,14.82,0,0,1,29.48,14.7a14.51,14.51,0,0,1-.71,4.52,8.2,8.2,0,0,0-1.61-.59,2.61,2.61,0,0,0-.53-.84,3.75,3.75,0,0,0-.87-.71.94.94,0,0,0-.71-.13L25,16.84h1.17a2.05,2.05,0,0,0,1.46-.54,2.73,2.73,0,0,0,.71-2.11,13.26,13.26,0,0,0-.67-3.43,19.57,19.57,0,0,0-1.92-4.27,12.81,12.81,0,0,0-3.27-3.67,7.85,7.85,0,0,0-4.71-1.57,5.76,5.76,0,0,0-4.62,2A8.14,8.14,0,0,0,11.5,6.38a1.54,1.54,0,0,0-.51.25,1.16,1.16,0,0,0-.34.44H10v.34h.58a1,1,0,0,0,.42.79.2.2,0,0,1,.09.07,21.05,21.05,0,0,0-.2,3.94,14.87,14.87,0,0,0,.22,2.45,2.92,2.92,0,0,0,.74,1.44,3.31,3.31,0,0,0,2.32.7h4.44l.25.33a2.48,2.48,0,0,1-.67.87.58.58,0,0,0-.16.34c-2.07.87-3.21,1.52-3.43,1.92l-1.15,2.06-1.11-4.91-.51.1L11.12,17l-2.18.22q-2.09.22-2.61.32a3.71,3.71,0,0,0-1.2.5l-.34.22h0v-.3a1.86,1.86,0,0,0-.33-1,2.29,2.29,0,0,0-1-.57l-.78-.24h0l-.71.26-.36-.34,1.7,8.11A15.28,15.28,0,0,1,1,20.47,14.83,14.83,0,0,1,14.65-.13Zm5.68,6.73a3.06,3.06,0,0,0,.21.41.08.08,0,0,0,0,.06H19.11v.34h1.65l.05.12a1.24,1.24,0,0,1-.19,1.12l-.37.5a.51.51,0,0,0-.05.53,1.2,1.2,0,0,0,.35.38.51.51,0,0,1,.15.48c.42-.11.59-.32.49-.66a.78.78,0,0,1,.05-.57l.12-.24s0,0,0-.05h0s0,0,0,0h0a5.06,5.06,0,0,0,.42-.83,1,1,0,0,0,0-.17.57.57,0,0,0-.25-.45h.47c.43.41.52,1.16.3,2.24,0,.63-.05,1-.28,1.05a.77.77,0,0,1-.69-.2v6.18h3.14l.45.6-3.6,2.43-3.36-4.35c.78-.67,1.27-1.1,1.44-1.27.39-.4,1-1.07,1.82-2a24.21,24.21,0,0,1-3.9,2.66l-.47.18a4.22,4.22,0,0,1-.48.12A4.54,4.54,0,0,1,14.92,15a1.52,1.52,0,0,1-1.19-.91,5.42,5.42,0,0,1-.14-.63,4.26,4.26,0,0,0-.16-.65,7.46,7.46,0,0,0-.37-.7,8.9,8.9,0,0,1-.47-.94A8.06,8.06,0,0,1,12,8.55H12a1.63,1.63,0,0,0,1-.33.85.85,0,0,0,.16-.15l.25-.76h0c.05-.34.29-.53.71-.53s.65.17.71.49a.78.78,0,0,0,0,.17,1,1,0,0,0,.42.79,1.73,1.73,0,0,0,2,0,1,1,0,0,0,.41-.79h.54V7.07h-.61a1.14,1.14,0,0,0-.34-.44,1.72,1.72,0,0,0-2,0,1.3,1.3,0,0,0-.22.22L15,6.75a1.05,1.05,0,0,0-.82-.32,1,1,0,0,0-.8.32.4.4,0,0,0-.09.1A1.16,1.16,0,0,0,13,6.63a1.58,1.58,0,0,0-.78-.32,11.55,11.55,0,0,1,3.68-4.43A7.35,7.35,0,0,0,20.33,6.61Zm-5.15.68s0-.06,0-.13a.77.77,0,0,1,.28-.28,1.31,1.31,0,0,1,.79-.24,1.33,1.33,0,0,1,.78.24.68.68,0,0,1,.28.34H15.76v.33H16c0,.08.11.12.24.12s.22,0,.26-.12h.82a.68.68,0,0,1-.3.44,1.41,1.41,0,0,1-.78.22A1.39,1.39,0,0,1,15.48,8a.68.68,0,0,1-.32-.55A.54.54,0,0,1,15.18,7.28Zm7,3.86a.43.43,0,0,1,.3.13.42.42,0,0,1,.13.3.45.45,0,0,1-.44.44.4.4,0,0,1-.3-.13.41.41,0,0,1-.12-.3.47.47,0,0,1,.12-.3A.45.45,0,0,1,22.22,11.14ZM11.44,7.21v.33h.29c0,.08.1.12.25.12a.3.3,0,0,0,.18-.07.09.09,0,0,0,.05-.05h.88a.76.76,0,0,1-.32.44A1.34,1.34,0,0,1,12,8.2,1.37,1.37,0,0,1,11.23,8a.68.68,0,0,1-.32-.55.65.65,0,0,1,.32-.55A1.29,1.29,0,0,1,12,6.63a1.26,1.26,0,0,1,.78.24.71.71,0,0,1,.29.34ZM11,17.3h0l.41.31L4.49,18.93,2.17,16.67l.53-.19a4.55,4.55,0,0,1,.76.24,1.84,1.84,0,0,1,.77.45,2,2,0,0,1,.26,1.38l0,.36.28-.22a3.66,3.66,0,0,1,1.65-.87c.33-.07,1.21-.17,2.63-.32Zm14.62.13h0a3,3,0,0,1,.71.59,2.46,2.46,0,0,1,.41.58.81.81,0,0,1,.11.25c0,.2-.42.67-1.4,1.43a34.1,34.1,0,0,1-3,2h0l-.87-2.13h0l4-2.73Zm-4.48,2.63h0l-2,1.58a17,17,0,0,1-.69-2.06c-.18-.75-.21-1.2-.08-1.32a3.41,3.41,0,0,0,.62-.75.29.29,0,0,1,.07-.09s0,0,0,0l2,2.65Zm-5.87-7.3a4.07,4.07,0,0,1-.63.17,1.79,1.79,0,0,1-.59,0,1.74,1.74,0,0,1-.41-.09.29.29,0,0,1-.16-.21c0,.18.05.33.29.44a1.83,1.83,0,0,0,.59.16,1.73,1.73,0,0,0,.9-.27c.36-.19.5-.3.42-.33S15.56,12.66,15.3,12.76Zm-.2-.24c.28,0,.38-.05.34-.11a3.19,3.19,0,0,0-1.24-.49l-.26.13-.21-.13c-.13,0-.25.14-.34.38l.29.09.22.16a1.34,1.34,0,0,1,.41,0Zm6.59-2.68a1.44,1.44,0,0,0,.28.21,2.73,2.73,0,0,1-.24-.75C21.64,9.6,21.63,9.78,21.69,9.85Zm-9.17.59a1.78,1.78,0,0,0,.58.58,3.22,3.22,0,0,0,1.42-.08Z"/><path class="cls-4" d="M15.18,7.27h0a.54.54,0,0,0,0,.14.68.68,0,0,0,.32.55,1.39,1.39,0,0,0,.79.22A1.41,1.41,0,0,0,17.05,8a.68.68,0,0,0,.3-.44h-.82c0,.08-.12.12-.26.12s-.21,0-.24-.12h-.28V7.21h1.57a.68.68,0,0,0-.28-.34,1.33,1.33,0,0,0-.78-.24,1.31,1.31,0,0,0-.79.24A.72.72,0,0,0,15.18,7.27Z"/><path class="cls-4" d="M22.52,11.27a.43.43,0,0,0-.3-.13.45.45,0,0,0-.3.13.47.47,0,0,0-.12.3.41.41,0,0,0,.12.3.4.4,0,0,0,.3.13.45.45,0,0,0,.44-.44A.42.42,0,0,0,22.52,11.27Z"/><path class="cls-4" d="M11.44,7.54V7.21h1.63a.71.71,0,0,0-.29-.34A1.26,1.26,0,0,0,12,6.63a1.29,1.29,0,0,0-.78.24.65.65,0,0,0-.32.55.68.68,0,0,0,.32.55A1.37,1.37,0,0,0,12,8.2,1.34,1.34,0,0,0,12.78,8a.76.76,0,0,0,.32-.44h-.88a.09.09,0,0,1-.05.05.3.3,0,0,1-.18.07c-.15,0-.23,0-.25-.12Z"/><path class="cls-4" d="M11.44,17.61,11,17.3l-2,.2c-1.41.15-2.29.25-2.62.32a3.66,3.66,0,0,0-1.65.87l-.28.22,0-.36a2,2,0,0,0-.26-1.38,1.84,1.84,0,0,0-.77-.45,4.55,4.55,0,0,0-.76-.24l-.53.19,2.32,2.27Z"/><path class="cls-4" d="M25.66,17.42h0l-4,2.73h0l.87,2.13h0a34.1,34.1,0,0,0,3-2c1-.75,1.43-1.23,1.4-1.43a.81.81,0,0,0-.11-.25,2.46,2.46,0,0,0-.41-.58,3,3,0,0,0-.71-.59Z"/><path class="cls-4" d="M19.11,17.42s0,0,0,0a.29.29,0,0,0-.07.09,3.41,3.41,0,0,1-.62.75c-.13.12-.11.57.08,1.32a17,17,0,0,0,.69,2.06l2-1.58Z"/></g></svg>