<svg id="Layer_1" data-name="Layer 1" xmlns="http://www.w3.org/2000/svg" viewBox="0 0 123.97 132.27"><defs><style>.cls-1{fill:#0d0d0c;}.cls-2{fill:#4ca67e;}.cls-3{fill:#e41714;}.cls-4{fill:#dcbc30;}</style></defs><title>icon-app</title><polygon class="cls-1" points="62.99 0 60.98 0 6.95 28.92 0 32.51 0 91.47 60.75 132.27 63.22 132.27 123.97 91.47 123.97 32.51 62.99 0"/><polygon class="cls-2" points="111.19 34.97 91.47 45.73 69.5 33.85 89.22 23.32 111.19 34.97"/><polygon class="cls-2" points="62.1 8.74 81.83 19.28 62.1 29.82 42.37 19.28 62.1 8.74"/><polygon class="cls-2" points="34.97 23.32 54.7 33.85 32.73 45.73 13 34.97 34.97 23.32"/><polygon class="cls-3" points="25.56 98.64 8.29 86.98 8.29 67.03 25.56 77.79 25.56 98.64"/><polygon class="cls-3" points="25.56 69.5 8.29 58.73 8.29 41.92 25.56 51.11 25.56 69.5"/><polygon class="cls-3" points="57.84 120.38 32.51 103.35 32.51 82.05 57.84 97.97 57.84 120.38"/><polygon class="cls-3" points="57.84 89.9 32.51 73.98 32.51 54.92 57.84 68.6 57.84 89.9"/><polygon class="cls-2" points="62.1 61.42 40.13 49.54 62.1 37.89 84.07 49.54 62.1 61.42"/><polygon class="cls-4" points="91.69 103.35 66.13 120.38 66.13 97.97 91.69 82.05 91.69 103.35"/><polygon class="cls-4" points="91.69 73.98 66.13 89.9 66.13 68.6 91.69 54.92 91.69 73.98"/><polygon class="cls-4" points="115.68 86.98 98.64 98.64 98.64 77.79 115.68 67.03 115.68 86.98"/><polygon class="cls-4" points="115.68 58.73 98.64 69.5 98.64 51.11 115.68 41.92 115.68 58.73"/></svg>