<svg id="Layer_1" data-name="Layer 1" xmlns="http://www.w3.org/2000/svg" viewBox="0 0 541.5 354"><defs><style>.cls-1,.cls-10,.cls-4{fill:#0c1b28;}.cls-2{font-size:13.41px;letter-spacing:-0.08em;}.cls-14,.cls-15,.cls-2,.cls-3,.cls-5{fill:#d12601;}.cls-10,.cls-14,.cls-2,.cls-3,.cls-4{font-family:FaunaOne, Fauna One;}.cls-3{font-size:9.41px;letter-spacing:-0.08em;}.cls-10,.cls-14,.cls-4{font-size:7.91px;}.cls-14,.cls-4{letter-spacing:-0.04em;}.cls-15,.cls-16,.cls-6,.cls-7{font-size:12.28px;}.cls-6{fill:#576369;}.cls-13,.cls-15,.cls-16,.cls-6,.cls-7{font-family:FontAwesome, FontAwesome;}.cls-7{fill:#738a15;}.cls-8{letter-spacing:-0.08em;}.cls-9{letter-spacing:-0.06em;}.cls-10{letter-spacing:-0.04em;}.cls-11{fill:none;}.cls-11,.cls-12{stroke:#000;stroke-linecap:round;stroke-linejoin:round;stroke-width:0.5px;}.cls-12{fill:#475359;}.cls-13{font-size:26.42px;}.cls-16{fill:#ad7608;}</style></defs><title>Artboard 1</title><path class="cls-1" d="M126.41,83.18h7.08v.25a3.54,3.54,0,0,1-2.08,3,9.59,9.59,0,0,1-5,1.24H55.63a9.59,9.59,0,0,1-5-1.24,3.54,3.54,0,0,1-2.08-3v-.25h77.85ZM67,80.34a7.1,7.1,0,0,1-7.08-7.08V42.13A7.1,7.1,0,0,1,67,35h48.13a7.1,7.1,0,0,1,7.08,7.08V73.27a7.1,7.1,0,0,1-7.08,7.08ZM63.19,40.69v34a1.57,1.57,0,0,0,1.55,1.55h52.57a1.57,1.57,0,0,0,1.55-1.55v-34a1.57,1.57,0,0,0-1.55-1.55H64.73a1.57,1.57,0,0,0-1.55,1.55Z"/><text class="cls-2" transform="translate(95.7 129.76)">/ root (machine)</text><text class="cls-2" transform="translate(393.7 98.22)">/ domain root </text><text class="cls-3" transform="translate(362.2 111.78)">repo name (Github)</text><text class="cls-2" transform="translate(95.7 113.05)">WEB HOST</text><text class="cls-4" transform="translate(117.73 146.74)">Applications</text><path class="cls-5" d="M101.49,66.09a1.85,1.85,0,0,1,.44.34.61.61,0,0,1,.17.34.81.81,0,0,1,0,.32.74.74,0,0,1-.22.31,4,4,0,0,1-.33.27,3.68,3.68,0,0,1-.42.26l-.44.23-.45.22-.38.18a7.4,7.4,0,0,0-1.2.79,13.58,13.58,0,0,0-1.06.9,1.62,1.62,0,0,1-1,.27,2.5,2.5,0,0,1-1.25-.2,1.22,1.22,0,0,1-.42-.33,1.81,1.81,0,0,1-.23-.36.63.63,0,0,0-.31-.27,1.63,1.63,0,0,0-.66-.13H91.89l-.8,0-.82,0a3.23,3.23,0,0,0-1.12.21,2.55,2.55,0,0,0-.75.42,2.73,2.73,0,0,1-.61.4,1.56,1.56,0,0,1-.75.16A6.41,6.41,0,0,1,85.47,70a14.47,14.47,0,0,0-2.06-.61l-.72-.13-.7-.13L81.44,69a1.54,1.54,0,0,1-.47-.2.69.69,0,0,1-.24-.27,1.28,1.28,0,0,1,.1-.94,4.2,4.2,0,0,0,.25-.77,2.19,2.19,0,0,0-.06-.56q-.07-.34-.14-.6a1.76,1.76,0,0,1-.06-.51.5.5,0,0,1,.15-.38,1.42,1.42,0,0,1,.8-.2,2,2,0,0,0,.84-.17,1.94,1.94,0,0,0,.59-.49,1.25,1.25,0,0,0,.17-.72,1.19,1.19,0,0,1-.45,1.49,1.83,1.83,0,0,1-1.17.21q-.48,0-.61.14t.07.8a2.18,2.18,0,0,0,.11.25l.12.25a1.21,1.21,0,0,1,.06.24,1.16,1.16,0,0,1,0,.31,1.85,1.85,0,0,1-.24.69,1.24,1.24,0,0,0-.2.68q0,.24.52.37.28.08,1.19.26l1.4.29q.34.08,1,.31t1.16.32a2.34,2.34,0,0,0,.78.06,1.53,1.53,0,0,0,.91-.39,1,1,0,0,0,.32-.68,2.56,2.56,0,0,0-.11-.82,4,4,0,0,0-.27-.73q-.14-.27-.28-.51a29.92,29.92,0,0,0-2.38-3.41q-1-1-1.59-.56-.16.13-.21-.21a2.37,2.37,0,0,1,0-.54,2.22,2.22,0,0,1,.14-.73,4,4,0,0,1,.34-.66,3.65,3.65,0,0,0,.31-.59l.37-1q.26-.72.42-1.1a7.91,7.91,0,0,1,.42-.86,3.46,3.46,0,0,1,.55-.76,10.85,10.85,0,0,0,1.75-2.75q-.17-1.58-.23-4.37A5.18,5.18,0,0,1,88,47.07a3.15,3.15,0,0,1,3-1.77,5.28,5.28,0,0,1,1.49.19,3.7,3.7,0,0,1,1.25.58A4.08,4.08,0,0,1,95,47.79a4.42,4.42,0,0,1,.42,2.08,9.06,9.06,0,0,0,.42,3,7.78,7.78,0,0,0,1.87,3.07,7.93,7.93,0,0,1,1.4,2.3,12.19,12.19,0,0,1,.84,2.69,5,5,0,0,1,.07,1.19,2.45,2.45,0,0,1-.17.78q-.13.28-.28.31a.67.67,0,0,0-.33.27l-.38.5a1.72,1.72,0,0,1-.57.47,1.64,1.64,0,0,1-.86.2,1.93,1.93,0,0,1-.44-.07.69.69,0,0,1-.32-.19l-.19-.22a2,2,0,0,1-.16-.29l-.13-.27q-.31-.52-.58-.42t-.39.69a2.8,2.8,0,0,0,.1,1.37,6.76,6.76,0,0,1,0,2.75,1.78,1.78,0,0,0,.25,1.42,1.16,1.16,0,0,0,1,.46,2,2,0,0,0,1.2-.5A10.22,10.22,0,0,1,99,68.43a9.25,9.25,0,0,1,1.46-.6,3.9,3.9,0,0,0,1.08-.51q.34-.26.26-.49a.81.81,0,0,0-.35-.4,3.44,3.44,0,0,0-.72-.33,1.16,1.16,0,0,1-.7-.68,2.25,2.25,0,0,1-.21-1,.92.92,0,0,1,.22-.67,3.41,3.41,0,0,0,.11.8,3.22,3.22,0,0,0,.2.57,1.64,1.64,0,0,0,.29.4,2.1,2.1,0,0,0,.3.27l.3.18Zm-3.27-3.73q0-.25-.77-.59l.11-.39a2.34,2.34,0,0,0,.07-.37c0-.13,0-.23,0-.3a1.34,1.34,0,0,0,0-.32c0-.14,0-.23,0-.27a2,2,0,0,0,0-.31l-.06-.29-.07-.35-.08-.37a4.18,4.18,0,0,0-.66-1.45,3.33,3.33,0,0,0-1-1.06,4.08,4.08,0,0,1,.8,1.17,5.3,5.3,0,0,1,.76,3.91.72.72,0,0,1-.7.59q-.44.06-.54-.26a4.43,4.43,0,0,1-.11-1.18A6.77,6.77,0,0,0,95.78,59a9.32,9.32,0,0,0-.27-1,3.89,3.89,0,0,0-.27-.64q-.13-.22-.22-.34a1.4,1.4,0,0,0-.18-.21l-.11-.1a9.13,9.13,0,0,0-.44-1.45,3.36,3.36,0,0,0-.42-.79,3.9,3.9,0,0,1-.33-.46,1.46,1.46,0,0,1-.13-1.32,1.24,1.24,0,0,0,.06-.7q-.08-.24-.63-.35a2.76,2.76,0,0,1-.63-.25,3.06,3.06,0,0,0-.5-.23c-.08,0-.13-.13-.15-.37a1.4,1.4,0,0,1,.11-.72.55.55,0,0,1,.51-.38.65.65,0,0,1,.72.42A1.05,1.05,0,0,1,93,51q-.15.27,0,.37t.42,0q.18-.06.18-.51v-.52a3.14,3.14,0,0,0-.19-.7,1.12,1.12,0,0,0-.3-.43,1.3,1.3,0,0,0-.33-.21,2,2,0,0,0-.38-.11q-1.51.11-1.25,1.89a.61.61,0,0,1,0,.21.64.64,0,0,0-.42-.15,2.11,2.11,0,0,0-.46,0q-.18,0-.22-.07a2.69,2.69,0,0,0-.23-1.27.75.75,0,0,0-.63-.48.61.61,0,0,0-.58.39,2.13,2.13,0,0,0-.23.84,2,2,0,0,0,0,.52,1.88,1.88,0,0,0,.18.53q.12.22.22.19a.38.38,0,0,0,.23-.2c0-.08,0-.12-.1-.11s-.14-.07-.22-.2a1,1,0,0,1-.13-.47.85.85,0,0,1,.13-.52.51.51,0,0,1,.48-.2.43.43,0,0,1,.38.3,1.21,1.21,0,0,1,.13.55,2.21,2.21,0,0,1,0,.31,1.54,1.54,0,0,0-.44.41,1.18,1.18,0,0,1-.39.33l-.29.18a.8.8,0,0,0-.22.38.21.21,0,0,0,.11.25,1.56,1.56,0,0,1,.35.27A2.14,2.14,0,0,1,89,53a.56.56,0,0,0,.26.18,1.53,1.53,0,0,0,.5.09,4.27,4.27,0,0,0,1.44-.21l.32-.1.49-.15a2.77,2.77,0,0,0,.42-.18.71.71,0,0,0,.3-.25q.13-.2.28-.11a.2.2,0,0,1,.09.12.2.2,0,0,1,0,.17.38.38,0,0,1-.23.13,8.24,8.24,0,0,0-.8.3l-.64.27a4.35,4.35,0,0,1-1,.32,3.79,3.79,0,0,1-1.11,0q-.14,0-.13,0a1.05,1.05,0,0,0,.24.27,1.29,1.29,0,0,0,.94.31,2.11,2.11,0,0,0,.51-.1,4.09,4.09,0,0,0,.51-.2l.47-.25.42-.24.34-.17a.38.38,0,0,1,.25,0,.19.19,0,0,1,.12.15.18.18,0,0,1,0,.06.19.19,0,0,1-.06.07l-.08.06-.12.07-.13.06-.14.07-.13.06a6.37,6.37,0,0,0-1,.62,5.84,5.84,0,0,1-.94.61.72.72,0,0,1-.69,0,3.52,3.52,0,0,1-.89-1q-.31-.44-.35-.31a.5.5,0,0,0,0,.14,1.89,1.89,0,0,1-.21.8q-.21.44-.42.78a2.46,2.46,0,0,0-.3.82,1.2,1.2,0,0,0,.16.89q-.32.08-.88,1.27a7.26,7.26,0,0,0-.67,2,9.69,9.69,0,0,0,0,1,2.09,2.09,0,0,1-.08.83q-.11.34-.41,0a1.94,1.94,0,0,1-.51-1.32,2.79,2.79,0,0,1,.06-.79c0-.18,0-.26,0-.25l-.06.07a2.55,2.55,0,0,0,.14,2.34,1.14,1.14,0,0,0,.35.39l.34.28a14.67,14.67,0,0,0,1.46,1.27q1.18,1,1.31,1.08a.78.78,0,0,1,.25.53.88.88,0,0,1-.84.93,6.55,6.55,0,0,0,.41.63,2.56,2.56,0,0,1,.39.76,3.83,3.83,0,0,1,.1,1q.65-.34.1-1.3a1.27,1.27,0,0,0-.15-.23l-.13-.17s0-.07,0-.08a.4.4,0,0,1,.18-.13.27.27,0,0,1,.28,0,2.56,2.56,0,0,0,2.34.51,3.14,3.14,0,0,0,2.49-1.22q.32-.54.48-.42t.14.73a5.89,5.89,0,0,1-.32,1.3,1,1,0,0,0-.08.53q0,.2.34.22,0-.27.2-1.08A10.32,10.32,0,0,0,95,66.58a4.77,4.77,0,0,0-.09-1,7.5,7.5,0,0,1-.11-1.37,1.54,1.54,0,0,1,.32-1,.89.89,0,0,1,.72-.25.8.8,0,0,1,.49-.75,1.75,1.75,0,0,1,1-.15A1.7,1.7,0,0,1,98.23,62.35Zm-12-5.06a.07.07,0,0,0-.08,0,1.18,1.18,0,0,0-.06.18.82.82,0,0,1-.08.19,1.36,1.36,0,0,1-.14.18c-.07.09-.07.15,0,.17s.1,0,.18-.1a.71.71,0,0,0,.18-.25l0-.1,0-.08,0-.06a.32.32,0,0,0,0-.06v0a0,0,0,0,0,0,0Zm3.2-6.59a.74.74,0,0,0,0-.42q-.08-.18-.16-.21t-.13.1a.13.13,0,0,0,.07.08q.14,0,.1.21t.11.28A0,0,0,0,0,89.38,50.71Zm.52.38a.25.25,0,0,0-.22.15c0,.09-.08.13-.12.13s-.07,0-.07-.07.09-.18.27-.21Zm1.22.2s-.09,0-.16-.09a.23.23,0,0,0-.25-.06q.34-.15.45,0A.08.08,0,0,1,91.13,51.29Zm1.65-.8a.56.56,0,0,0-.23-.45c-.06,0-.1-.05-.13,0s-.16,0-.1.1l.06,0q.2.06.25.44s0,0,.11,0Zm.76-3.28a.12.12,0,0,0,0-.07l-.13-.1-.13-.08a.58.58,0,0,0-.34-.21.18.18,0,0,0-.16.11.31.31,0,0,0,0,.18.32.32,0,0,1,0,.18.46.46,0,0,1-.08.15l-.08.13s0,.06,0,.12a.09.09,0,0,0,.11,0l.15-.13a.69.69,0,0,1,.21-.13h.13a.76.76,0,0,0,.21,0A.18.18,0,0,0,93.54,47.2Zm1.75,6.28a.28.28,0,0,0-.09-.16.41.41,0,0,0-.18-.07.53.53,0,0,1-.2-.08.58.58,0,0,1-.13-.11l-.1-.11-.08-.09-.06-.06-.06,0q-.2.23.1.61a1.08,1.08,0,0,0,.55.44.2.2,0,0,0,.2-.11A.39.39,0,0,0,95.28,53.48Z"/><text class="cls-6" transform="translate(101.77 148.83)"></text><text class="cls-4" transform="translate(117.73 163.25)">Library</text><text class="cls-6" transform="translate(101.77 165.34)"></text><text class="cls-4" transform="translate(117.73 179.77)">System</text><text class="cls-6" transform="translate(101.77 181.86)"></text><text class="cls-4" transform="translate(117.73 196.28)">Users</text><text class="cls-6" transform="translate(101.77 198.37)"></text><text class="cls-7" transform="translate(277.98 100.22)"></text><text class="cls-4" transform="translate(296.01 97.55)">planetoftheweb<tspan class="cls-8" x="57.97" y="0">.</tspan><tspan x="59.41" y="0">github.i</tspan><tspan class="cls-9" x="87.69" y="0">o</tspan></text><text class="cls-7" transform="translate(277.98 66.81)"></text><text class="cls-4" transform="translate(296.01 64.14)">otherperson<tspan class="cls-8" x="45.43" y="0">.</tspan><tspan x="46.87" y="0">github.i</tspan><tspan class="cls-9" x="75.16" y="0">o</tspan></text><text class="cls-7" transform="translate(277.98 83.31)"></text><text class="cls-4" transform="translate(296.01 80.64)">awesomelsite<tspan class="cls-8" x="50.48" y="0">.</tspan><tspan x="51.92" y="0">github.i</tspan><tspan class="cls-9" x="80.2" y="0">o</tspan></text><text class="cls-6" transform="translate(295.18 114.04)"></text><text class="cls-10" transform="translate(312.32 111.37)">filestructure</text><polyline class="cls-11" points="285.47 102.8 285.47 110.25 292.55 110.25"/><polyline class="cls-11" points="301.83 119.2 301.83 126.65 308.9 126.65"/><polyline class="cls-11" points="318.63 164.76 318.63 172.21 325.7 172.21"/><polyline class="cls-11" points="335 215.03 335 222.48 342.07 222.48"/><polyline class="cls-11" points="338.63 261.59 338.63 269.05 345.7 269.05"/><line class="cls-12" x1="98.81" y1="144.07" x2="80.23" y2="120.73"/><line class="cls-12" x1="98.81" y1="160.93" x2="80.23" y2="120.73"/><line class="cls-12" x1="98.81" y1="177.1" x2="80.23" y2="120.73"/><line class="cls-12" x1="98.81" y1="194.9" x2="80.23" y2="120.73"/><line class="cls-12" x1="143" y1="194.9" x2="273.79" y2="103.15"/><line class="cls-12" x1="143" y1="194.9" x2="273.79" y2="61.56"/><line class="cls-12" x1="143" y1="194.9" x2="273.79" y2="78.61"/><text class="cls-13" transform="translate(69.36 118.8)"></text><text class="cls-14" transform="translate(390.24 175.56)">default</text><text class="cls-15" transform="translate(329.56 177.07)"></text><text class="cls-6" transform="translate(329.29 256.86)"></text><text class="cls-6" transform="translate(329.29 209.71)"></text><text class="cls-16" transform="translate(350.78 273.77)"></text><text class="cls-4" transform="translate(367.53 271.38)">photo01.jpg</text><text class="cls-16" transform="translate(350.78 288.77)"></text><text class="cls-4" transform="translate(367.53 286.38)">icon.svg</text><text class="cls-16" transform="translate(350.78 303.27)"></text><text class="cls-4" transform="translate(367.53 300.88)">logo.png</text><text class="cls-4" transform="translate(346.43 175.48)">index.html</text><text class="cls-14" transform="translate(405.49 223.56)">default</text><text class="cls-15" transform="translate(344.81 225.07)"></text><text class="cls-4" transform="translate(361.68 223.48)">index.html</text><text class="cls-15" transform="translate(344.81 241.07)"></text><text class="cls-4" transform="translate(361.68 239.48)">sample01.html</text><text class="cls-15" transform="translate(329.56 193.07)"></text><text class="cls-4" transform="translate(346.43 191.48)">aboutme.html</text><text class="cls-4" transform="translate(346.43 254.19)">images</text><text class="cls-6" transform="translate(312.42 160.94)"></text><text class="cls-4" transform="translate(329.56 160.04)">finalproject</text><text class="cls-6" transform="translate(312.42 146.35)"></text><text class="cls-4" transform="translate(329.56 145.45)">validhtml</text><text class="cls-4" transform="translate(345.83 207.95)">portfolio</text><text class="cls-6" transform="translate(312.42 131.76)"></text><text class="cls-4" transform="translate(329.56 130.86)">blog</text></svg>